<?xml version="1.0" encoding="utf-8"?>
<!-- Generator: Adobe Illustrator 21.1.0, SVG Export Plug-In . SVG Version: 6.00 Build 0)  -->
<svg version="1.1" id="_x31_0" xmlns="http://www.w3.org/2000/svg" xmlns:xlink="http://www.w3.org/1999/xlink" x="0px" y="0px"
	 width="512px" height="512px" viewBox="0 0 512 512" style="enable-background:new 0 0 512 512;" xml:space="preserve">
<style type="text/css">
	.st0{fill:#4B4B4B;}
</style>
<g>
	<path class="st0" d="M249.5,295.9L249.5,295.9c1.8,0,3.7,0,5.5,0h7c1.8,0,3.7,0,5.5,0.1v-0.1v-5v-5V150.1c0-2-1.6-3.6-3.6-3.6
		h-10.7c-2,0-3.6,1.6-3.6,3.6v135.8v5v4.8L249.5,295.9L249.5,295.9L249.5,295.9L249.5,295.9z"/>
	<path class="st0" d="M270.8,108.9c4.9,0.4,10.2-0.8,14.9-3.3c7.3-3.8,12.9-11.6,14.7-20.3l0.2-0.9c1.5-8.8-1-16.9-7.6-25.4
		l-1.5-1.9l-0.3-0.5l2.7-1.3c8.5-4.1,14.8-12.2,16.6-21.7c1.3-6.8,0.3-13.6-2.9-19.7C303.3,6.2,295.9,0.8,288.6,0
		c-3.1-0.3-5.3,1-5.5,2c-0.1,0.7,0.5,1.7,1.7,2.7c0.9,0.8,1.9,1.6,2.9,2.3c1.8,1.4,3.6,2.8,5.3,4.7c4.7,5.5,6.7,13,5.4,19.9
		c-0.6,3.1-1.8,5.9-3.6,8.5c-4.5,6.4-11,8.5-17.4,10.5L276,51c-1.7,0.5-2.8,1.3-2.9,2c-0.2,0.8,0.7,2.4,2.9,4.1
		c3.1,2.4,6.6,5.1,9.1,9.1c3.1,5,4.2,11,3.1,16.7c-0.7,3.4-2.1,6.6-4.2,9.3c-2.7,3.5-6.5,6.3-11,8c-1.1,0.4-2.5,0.8-3.9,1.1
		c-2.4,0.5-5.4,1.2-6.1,2.5c-0.2,0.3-0.3,0.6-0.3,0.8c-0.1,0.3-0.1,0.6,0.3,1.1C264.1,107.4,268,108.7,270.8,108.9z"/>
	<path class="st0" d="M218.3,80.7l2.2,1.1L221,82l-1.9,2.4c-6.7,8.5-9.1,16.6-7.6,25.4l0.2,0.9c1.7,8.7,7.3,16.5,14.7,20.3
		c4.7,2.6,9.9,3.8,14.9,3.3c2.9-0.2,6.7-1.6,7.9-3.1c0.3-0.5,0.3-0.8,0.3-1.1c-0.1-0.2-0.2-0.5-0.3-0.8c-0.7-1.3-3.7-2-6.1-2.5
		c-1.5-0.3-2.8-0.7-3.9-1.1c-4.5-1.8-8.3-4.6-11-8.1c-2.1-2.8-3.5-5.9-4.2-9.3c-1.1-5.8,0-11.7,3.1-16.7c2.5-4.1,6-6.8,9.1-9.1
		c2.2-1.7,3-3.3,2.9-4.1c-0.1-0.7-1.2-1.4-2.9-2l-1.3-0.4c-6.3-2-12.9-4.1-17.4-10.5c-1.8-2.6-3-5.4-3.6-8.5
		c-1.4-6.9,0.6-14.3,5.4-19.9c1.6-1.9,3.5-3.3,5.3-4.7c1-0.8,2-1.5,2.9-2.3c1.2-1,1.8-2.1,1.7-2.7c-0.2-1-2.4-2.3-5.5-2
		c-7.3,0.7-14.8,6.2-18.9,13.9c-3.2,6-4.2,12.8-2.9,19.7C203.5,68.4,209.7,76.5,218.3,80.7z"/>
	<polygon class="st0" points="375,357.9 356.5,350.1 356.5,340.7 155.6,340.7 155.6,350.1 137,357.9 137,361.2 137,361.2 137,361.4 
		375,361.4 	"/>
	<path class="st0" d="M158.3,470.8L158.3,470.8c-0.1,0.1-0.1,0-0.2,0l2,26.6c0.2,2.4,2.1,4.2,4.5,4.2h14.8c2.4,0,4.3-1.8,4.5-4.2
		l1.3-17.6c-8.3-1.8-16.3-4.2-23.9-7.6C160.3,471.7,159.2,471.3,158.3,470.8z"/>
	<polygon class="st0" points="155.6,326.3 356.5,326.3 356.5,325.5 375,319.5 375,301.5 137,301.5 137,319.5 155.6,325.5 	"/>
	<path class="st0" d="M353.9,470.8c-8.6,4.3-17.6,7.1-27.1,9.1l1.3,17.6c0.2,2.4,2.1,4.2,4.5,4.2h14.8c2.4,0,4.3-1.8,4.5-4.2
		l1.3-17.6l0.8-8.9c0,0-0.1,0-0.1,0L353.9,470.8z"/>
</g>
<path class="st0" d="M376.5,375.8H135.5c-2,2.5-5.1,8.3-5.1,19.5c0,16.3,2.2,31.7,16.2,48.6c2.3,2.7,4.5,5.1,6.8,7.2
	c13.8,13,28.7,16.5,49,19.1c7,0.8,14.6,1.6,23,2.5c8.6,0.9,15.5,7.5,16.8,16.1c0.9,5.6,1.7,10.9,2.2,14.2c0.9,6.2,4.5,9,11.5,9
	c7.1,0,10.6-2.7,11.6-8.9c0.5-3.3,1.4-8.6,2.2-14.2c1.3-8.5,8.2-15.1,16.8-16.1c8.5-1,16.1-1.7,23-2.5c20.4-2.6,35.2-6.2,49.1-19.2
	c2.3-2.1,4.5-4.5,6.7-7.2c14.1-16.9,16.2-32.2,16.2-48.6C381.7,384.2,378.5,378.4,376.5,375.8z"/>
</svg>
