<!--?xml version="1.0" encoding="utf-8"?-->
<!-- Generator: Adobe Illustrator 18.0.0, SVG Export Plug-In . SVG Version: 6.00 Build 0)  -->

<svg version="1.1" id="_x31_0" xmlns="http://www.w3.org/2000/svg" xmlns:xlink="http://www.w3.org/1999/xlink" x="0px" y="0px" viewBox="0 0 512 512" style="width: 256px; height: 256px; opacity: 1;" xml:space="preserve">
<style type="text/css">
	.st0{fill:#374149;}
</style>
<g>
	<path class="st0" d="M151.611,416.118c0.718,0.722,0.32,2.562-1.043,4.562c-0.637,0.879-1.039,1.359-1.519,1.758l-0.798,0.723
		c-0.32,0.238-0.64,0.558-0.961,0.797L7.531,509.957c-1.52,0.801-2.961,1.281-4.16,1.281c-1.359,0-2.321-0.48-2.879-1.441
		c-0.879-1.438-0.558-3.68,0.801-6.161L87.69,364.2c0.32-0.562,0.801-1.039,1.359-1.602c0.723-0.718,1.203-1.199,1.762-1.602
		c0.962-0.636,1.442-0.878,1.918-1.038c0.961-0.321,1.442-0.398,1.922-0.398c0.398,0,0.719,0.078,0.879,0.32L151.611,416.118z" style="fill: rgb(75, 75, 75);"></path>
	<path class="st0" d="M400.968,59.242l-290.4,280.638l61.042,61.281l281.517-289.598L400.968,59.242z M292.887,238.842
		l-19.68-19.762l94.722-93.358l18.797,18.718L292.887,238.842z" style="fill: rgb(75, 75, 75);"></path>
	<path class="st0" d="M496.885,62.121l-24.957,25.68l-47.202-47.277l25.839-24.883c0.961-0.957,2.082-1.839,3.122-2.718
		c1.762-1.519,2.961-2.481,4.16-3.359c4-2.879,7.519-4.879,10.961-6.32l1.121-0.481c1.039-0.398,2-0.718,2.957-1.039
		c2.242-0.558,4.082-0.878,5.84-0.961h0.961c1.602,0,2.961,0.238,4.16,0.641c1.52,0.48,2.559,1.121,3.36,1.918l22.082,22.164
		C515.767,31.962,510.248,48.442,496.885,62.121z" style="fill: rgb(75, 75, 75);"></path>
</g>
</svg>
