<?xml version="1.0" encoding="utf-8"?>
<!-- Generator: Adobe Illustrator 21.1.0, SVG Export Plug-In . SVG Version: 6.00 Build 0)  -->
<svg version="1.1" xmlns="http://www.w3.org/2000/svg" xmlns:xlink="http://www.w3.org/1999/xlink" x="0px" y="0px" width="512px"
	 height="512px" viewBox="0 0 512 512" style="enable-background:new 0 0 512 512;" xml:space="preserve">
<style type="text/css">
	.st0{fill:#4B4B4B;}
	.st1{fill:#EF5454;}
	.st2{fill:#56ED63;}
	.st3{fill:#EAD557;}
	.st4{fill:#5858E8;}
	.st5{fill:#5AE5E5;}
</style>
<g id="_x31_0">
	<g>
		<path class="st0" d="M151.6,416.1c0.7,0.7,0.3,2.6-1,4.6c-0.6,0.9-1,1.4-1.5,1.8l-0.8,0.7c-0.3,0.2-0.6,0.6-1,0.8L7.5,510
			c-1.5,0.8-3,1.3-4.2,1.3c-1.4,0-2.3-0.5-2.9-1.4c-0.9-1.4-0.6-3.7,0.8-6.2l86.4-139.4c0.3-0.6,0.8-1,1.4-1.6
			c0.7-0.7,1.2-1.2,1.8-1.6c1-0.6,1.4-0.9,1.9-1c1-0.3,1.4-0.4,1.9-0.4c0.4,0,0.7,0.1,0.9,0.3L151.6,416.1z"/>
		<path class="st0" d="M401,59.2L110.6,339.9l61,61.3l281.5-289.6L401,59.2z M292.9,238.8l-19.7-19.8l94.7-93.4l18.8,18.7
			L292.9,238.8z"/>
		<path class="st0" d="M496.9,62.1l-25,25.7l-47.2-47.3l25.8-24.9c1-1,2.1-1.8,3.1-2.7c1.8-1.5,3-2.5,4.2-3.4c4-2.9,7.5-4.9,11-6.3
			l1.1-0.5c1-0.4,2-0.7,3-1c2.2-0.6,4.1-0.9,5.8-1h1c1.6,0,3,0.2,4.2,0.6c1.5,0.5,2.6,1.1,3.4,1.9l22.1,22.2
			C515.8,32,510.2,48.4,496.9,62.1z"/>
	</g>
</g>
<g id="レイヤー_2">
	<g>
		<path class="st1" d="M151.6,416.1c0.7,0.7,0.3,2.6-1,4.6c-0.6,0.9-1,1.4-1.5,1.8l-0.8,0.7c-0.3,0.2-0.6,0.6-1,0.8L7.5,510
			c-1.5,0.8-3,1.3-4.2,1.3c-1.4,0-2.3-0.5-2.9-1.4c-0.9-1.4-0.6-3.7,0.8-6.2l86.4-139.4c0.3-0.6,0.8-1,1.4-1.6
			c0.7-0.7,1.2-1.2,1.8-1.6c1-0.6,1.4-0.9,1.9-1c1-0.3,1.4-0.4,1.9-0.4c0.4,0,0.7,0.1,0.9,0.3L151.6,416.1z"/>
		<path class="st1" d="M401,59.2L110.6,339.9l61,61.3l281.5-289.6L401,59.2z M292.9,238.8l-19.7-19.8l94.7-93.4l18.8,18.7
			L292.9,238.8z"/>
		<path class="st1" d="M496.9,62.1l-25,25.7l-47.2-47.3l25.8-24.9c1-1,2.1-1.8,3.1-2.7c1.8-1.5,3-2.5,4.2-3.4c4-2.9,7.5-4.9,11-6.3
			l1.1-0.5c1-0.4,2-0.7,3-1c2.2-0.6,4.1-0.9,5.8-1h1c1.6,0,3,0.2,4.2,0.6c1.5,0.5,2.6,1.1,3.4,1.9l22.1,22.2
			C515.8,32,510.2,48.4,496.9,62.1z"/>
	</g>
</g>
<g id="レイヤー_3">
	<g>
		<path class="st2" d="M151.6,416.1c0.7,0.7,0.3,2.6-1,4.6c-0.6,0.9-1,1.4-1.5,1.8l-0.8,0.7c-0.3,0.2-0.6,0.6-1,0.8L7.5,510
			c-1.5,0.8-3,1.3-4.2,1.3c-1.4,0-2.3-0.5-2.9-1.4c-0.9-1.4-0.6-3.7,0.8-6.2l86.4-139.4c0.3-0.6,0.8-1,1.4-1.6
			c0.7-0.7,1.2-1.2,1.8-1.6c1-0.6,1.4-0.9,1.9-1c1-0.3,1.4-0.4,1.9-0.4c0.4,0,0.7,0.1,0.9,0.3L151.6,416.1z"/>
		<path class="st2" d="M401,59.2L110.6,339.9l61,61.3l281.5-289.6L401,59.2z M292.9,238.8l-19.7-19.8l94.7-93.4l18.8,18.7
			L292.9,238.8z"/>
		<path class="st2" d="M496.9,62.1l-25,25.7l-47.2-47.3l25.8-24.9c1-1,2.1-1.8,3.1-2.7c1.8-1.5,3-2.5,4.2-3.4c4-2.9,7.5-4.9,11-6.3
			l1.1-0.5c1-0.4,2-0.7,3-1c2.2-0.6,4.1-0.9,5.8-1h1c1.6,0,3,0.2,4.2,0.6c1.5,0.5,2.6,1.1,3.4,1.9l22.1,22.2
			C515.8,32,510.2,48.4,496.9,62.1z"/>
	</g>
</g>
<g id="レイヤー_4">
	<g>
		<path class="st3" d="M151.6,416.1c0.7,0.7,0.3,2.6-1,4.6c-0.6,0.9-1,1.4-1.5,1.8l-0.8,0.7c-0.3,0.2-0.6,0.6-1,0.8L7.5,510
			c-1.5,0.8-3,1.3-4.2,1.3c-1.4,0-2.3-0.5-2.9-1.4c-0.9-1.4-0.6-3.7,0.8-6.2l86.4-139.4c0.3-0.6,0.8-1,1.4-1.6
			c0.7-0.7,1.2-1.2,1.8-1.6c1-0.6,1.4-0.9,1.9-1c1-0.3,1.4-0.4,1.9-0.4c0.4,0,0.7,0.1,0.9,0.3L151.6,416.1z"/>
		<path class="st3" d="M401,59.2L110.6,339.9l61,61.3l281.5-289.6L401,59.2z M292.9,238.8l-19.7-19.8l94.7-93.4l18.8,18.7
			L292.9,238.8z"/>
		<path class="st3" d="M496.9,62.1l-25,25.7l-47.2-47.3l25.8-24.9c1-1,2.1-1.8,3.1-2.7c1.8-1.5,3-2.5,4.2-3.4c4-2.9,7.5-4.9,11-6.3
			l1.1-0.5c1-0.4,2-0.7,3-1c2.2-0.6,4.1-0.9,5.8-1h1c1.6,0,3,0.2,4.2,0.6c1.5,0.5,2.6,1.1,3.4,1.9l22.1,22.2
			C515.8,32,510.2,48.4,496.9,62.1z"/>
	</g>
</g>
<g id="レイヤー_5">
	<g>
		<path class="st4" d="M151.6,416.1c0.7,0.7,0.3,2.6-1,4.6c-0.6,0.9-1,1.4-1.5,1.8l-0.8,0.7c-0.3,0.2-0.6,0.6-1,0.8L7.5,510
			c-1.5,0.8-3,1.3-4.2,1.3c-1.4,0-2.3-0.5-2.9-1.4c-0.9-1.4-0.6-3.7,0.8-6.2l86.4-139.4c0.3-0.6,0.8-1,1.4-1.6
			c0.7-0.7,1.2-1.2,1.8-1.6c1-0.6,1.4-0.9,1.9-1c1-0.3,1.4-0.4,1.9-0.4c0.4,0,0.7,0.1,0.9,0.3L151.6,416.1z"/>
		<path class="st4" d="M401,59.2L110.6,339.9l61,61.3l281.5-289.6L401,59.2z M292.9,238.8l-19.7-19.8l94.7-93.4l18.8,18.7
			L292.9,238.8z"/>
		<path class="st4" d="M496.9,62.1l-25,25.7l-47.2-47.3l25.8-24.9c1-1,2.1-1.8,3.1-2.7c1.8-1.5,3-2.5,4.2-3.4c4-2.9,7.5-4.9,11-6.3
			l1.1-0.5c1-0.4,2-0.7,3-1c2.2-0.6,4.1-0.9,5.8-1h1c1.6,0,3,0.2,4.2,0.6c1.5,0.5,2.6,1.1,3.4,1.9l22.1,22.2
			C515.8,32,510.2,48.4,496.9,62.1z"/>
	</g>
</g>
<g id="レイヤー_6">
	<g>
		<path class="st5" d="M151.6,416.1c0.7,0.7,0.3,2.6-1,4.6c-0.6,0.9-1,1.4-1.5,1.8l-0.8,0.7c-0.3,0.2-0.6,0.6-1,0.8L7.5,510
			c-1.5,0.8-3,1.3-4.2,1.3c-1.4,0-2.3-0.5-2.9-1.4c-0.9-1.4-0.6-3.7,0.8-6.2l86.4-139.4c0.3-0.6,0.8-1,1.4-1.6
			c0.7-0.7,1.2-1.2,1.8-1.6c1-0.6,1.4-0.9,1.9-1c1-0.3,1.4-0.4,1.9-0.4c0.4,0,0.7,0.1,0.9,0.3L151.6,416.1z"/>
		<path class="st5" d="M401,59.2L110.6,339.9l61,61.3l281.5-289.6L401,59.2z M292.9,238.8l-19.7-19.8l94.7-93.4l18.8,18.7
			L292.9,238.8z"/>
		<path class="st5" d="M496.9,62.1l-25,25.7l-47.2-47.3l25.8-24.9c1-1,2.1-1.8,3.1-2.7c1.8-1.5,3-2.5,4.2-3.4c4-2.9,7.5-4.9,11-6.3
			l1.1-0.5c1-0.4,2-0.7,3-1c2.2-0.6,4.1-0.9,5.8-1h1c1.6,0,3,0.2,4.2,0.6c1.5,0.5,2.6,1.1,3.4,1.9l22.1,22.2
			C515.8,32,510.2,48.4,496.9,62.1z"/>
	</g>
</g>
</svg>
