<!--?xml version="1.0" encoding="utf-8"?-->
<!-- Generator: Adobe Illustrator 18.1.1, SVG Export Plug-In . SVG Version: 6.00 Build 0)  -->

<svg version="1.1" id="_x31_0" xmlns="http://www.w3.org/2000/svg" xmlns:xlink="http://www.w3.org/1999/xlink" x="0px" y="0px" viewBox="0 0 512 512" style="width: 256px; height: 256px; opacity: 1;" xml:space="preserve">
<style type="text/css">
	.st0{fill:#374149;}
</style>
<g>
	<path class="st0" d="M324.67,111.153c-13.805-66.684,4.301-95.349-4.976-108.7c-5.43-7.852-59.036,2.902-96.826,35.832
		c-0.305,0.266-0.613,0.523-0.914,0.793c-1.242,1.098-2.454,2.23-3.653,3.375c-0.438,0.418-0.871,0.832-1.301,1.258
		c-1.156,1.133-2.289,2.29-3.398,3.469c-0.398,0.422-0.789,0.852-1.179,1.282c-1.149,1.254-2.278,2.523-3.375,3.828
		c-0.226,0.27-0.442,0.543-0.664,0.817c-13.5,16.371-22.723,36.687-22.887,61.29c-0.211,34.406,20.129,58.5,47.918,66.344
		c3.274,0.922,6.52-1.558,6.328-4.957l-2.875-51.278c0-9.582,6.79-17.274,17.348-17.274c10.485,0,17.274,7.692,17.274,17.274
		l-2.91,52.094c-0.175,3.188,2.696,5.626,5.836,5.062C305.694,176.044,334.089,156.321,324.67,111.153z" style="fill: rgb(75, 75, 75);"></path>
	<path class="st0" d="M291.557,197.071h-28.742h-17.274h-28.586c-10.711,0-19.387,8.75-19.387,19.383v257.15
		c0,21.196,17.199,38.395,38.321,38.395h36.66c21.196,0,38.317-17.199,38.317-38.395v-257.15
		C310.866,205.822,302.19,197.071,291.557,197.071z" style="fill: rgb(75, 75, 75);"></path>
</g>
</svg>
