<!--?xml version="1.0" encoding="utf-8"?-->
<!-- Generator: Adobe Illustrator 18.0.0, SVG Export Plug-In . SVG Version: 6.00 Build 0)  -->

<svg version="1.1" id="_x31_0" xmlns="http://www.w3.org/2000/svg" xmlns:xlink="http://www.w3.org/1999/xlink" x="0px" y="0px" viewBox="0 0 512 512" style="width: 256px; height: 256px; opacity: 1;" xml:space="preserve">
<style type="text/css">
	.st0{fill:#374149;}
</style>
<g>
	<path class="st0" d="M366.408,297.283c1.815-2.991,3.47-6.059,5.126-9.206c14.293-27.215,22.366-58.147,22.413-90.974
		C394.108,88.382,306.14,0.16,197.419,0c-32.83-0.046-63.782,7.941-90.962,22.23C70.77,40.677,41.442,69.923,22.73,105.555
		c-14.289,27.22-22.362,58.148-22.41,90.978C0.16,305.25,88.206,393.471,196.849,393.631c32.826,0.047,63.859-7.937,91.036-22.226
		c3.154-1.648,6.227-3.299,9.222-5.103L442.378,512l69.302-69.025L366.408,297.283z M242.945,311.981
		c-3.471,1.414-7.012,2.589-10.635,3.686c-11.185,3.37-23.077,5.162-35.355,5.142c-68.334-0.098-123.913-55.758-123.815-124.17
		c0.02-12.282,1.847-24.166,5.247-35.344c1.109-3.619,2.296-7.16,3.717-10.541c12.642-31.475,37.792-56.63,69.302-69.021
		c3.467-1.491,7.008-2.666,10.631-3.764c11.186-3.369,22.995-5.165,35.278-5.146c68.411,0.098,123.912,55.841,123.814,124.174
		c-0.019,12.282-1.846,24.088-5.247,35.262c-1.109,3.619-2.295,7.16-3.716,10.623C299.601,274.354,274.45,299.43,242.945,311.981z" style="fill: rgb(75, 75, 75);"></path>
	<path class="st0" d="M199.121,109.303c-15.277-0.023-29.686,3.596-42.43,10.046c-9.432,4.77-5.653,18.814,4.923,18.794
		c0.121,0,0.246,0,0.371,0c51.417,0.074,95.08,33.306,110.662,79.452c1.495,4.423,5.134,6.458,8.858,6.59
		c0.121,0.004,0.25,0.05,0.367,0.05c0.054,0,0.113-0.027,0.167-0.031c0.976-0.015,1.918-0.175,2.854-0.461
		c0.109-0.031,0.21-0.05,0.32-0.086c0.976-0.336,1.874-0.816,2.718-1.437c0.098-0.07,0.202-0.117,0.296-0.195
		c0.906-0.718,1.691-1.589,2.315-2.643c0.008-0.015,0.02-0.023,0.028-0.038c0.663-1.137,1.178-2.406,1.378-3.912
		c0.523-4.002,0.801-8.082,0.805-12.22C292.831,151.394,250.866,109.378,199.121,109.303z" style="fill: rgb(75, 75, 75);"></path>
</g>
</svg>
