<?xml version="1.0" encoding="utf-8"?>
<!-- Generator: Adobe Illustrator 21.1.0, SVG Export Plug-In . SVG Version: 6.00 Build 0)  -->
<svg version="1.1" xmlns="http://www.w3.org/2000/svg" xmlns:xlink="http://www.w3.org/1999/xlink" x="0px" y="0px" width="512px"
	 height="512px" viewBox="0 0 512 512" style="enable-background:new 0 0 512 512;" xml:space="preserve">
<style type="text/css">
	.st0{fill:#4B4B4B;}
	.st1{fill:#EF5454;}
	.st2{fill:#56ED63;}
	.st3{fill:#EAD557;}
	.st4{fill:#5858E8;}
	.st5{fill:#5AE5E5;}
</style>
<g id="kuro">
	<g>
		<g>
			<path class="st0" d="M511.5,272.5c-0.7-8.7-10.3-13.6-18.1-9.5c-13.9,7.4-31.7,10.4-50.4,7.2c-37.3-6.3-63.7-34.5-58.9-63
				c4.1-24.1,28.9-40.8,58.9-41.7c6-0.2,10.8-5.1,10.8-11.1c0-2.9-1.1-5.7-3.1-7.8c-34.8-36.4-82.9-65.8-139.5-82.2
				C173.3,24.6,36.7,78,6.1,183.9c-30.6,105.8,56.5,223.8,194.6,263.7c138,39.9,274.6-13.6,305.2-119.5
				C511.1,309.9,513,291.1,511.5,272.5z M263.4,378.4c0-7.6,3.1-15,8.5-20.4c10.7-10.8,30.1-10.8,40.8,0c5.4,5.4,8.4,12.8,8.4,20.4
				c0,7.6-3.1,15-8.4,20.4c-5.4,5.4-12.9,8.4-20.4,8.4c-7.6,0-15-3.1-20.4-8.4C266.5,393.4,263.4,386,263.4,378.4z M247.7,105.5
				c7.4,7.4,11.7,17.7,11.7,28.1c0,10.4-4.3,20.6-11.7,28c-7.4,7.4-17.6,11.7-28,11.7c-10.5,0-20.7-4.3-28.1-11.7
				c-7.4-7.4-11.6-17.6-11.6-28c0-10.4,4.2-20.7,11.6-28.1C206.5,90.8,232.9,90.8,247.7,105.5z M154.2,338.4
				c7.2-14.3,24.6-20,38.7-12.9c14.3,7.2,19.9,24.5,12.8,38.7c-5,10.1-15.2,15.9-25.7,15.9c-4.4,0-8.8-1-13-3.1
				C152.8,369.9,147,352.6,154.2,338.4z M81,194.3c-14.5-16.4-12.8-41.5,3.7-55.9c16.5-14.5,41.6-12.8,56,3.7
				c14.4,16.5,12.7,41.6-3.7,56c-7.6,6.6-16.9,9.7-26.2,9.7C99.8,207.9,88.8,203.4,81,194.3z M76.6,238.9
				c19.3-10.3,43.3-3.1,53.6,16.3c10.4,19.3,3.1,43.3-16.2,53.7c-6,3.2-12.4,4.6-18.7,4.6c-14.2,0-27.9-7.6-35-21
				C50,273.4,57.2,249.3,76.6,238.9z"/>
		</g>
	</g>
</g>
<g id="red">
	<g>
		<g>
			<path class="st1" d="M511.5,272.5c-0.7-8.7-10.3-13.6-18.1-9.5c-13.9,7.4-31.7,10.4-50.4,7.2c-37.3-6.3-63.7-34.5-58.9-63
				c4.1-24.1,28.9-40.8,58.9-41.7c6-0.2,10.8-5.1,10.8-11.1c0-2.9-1.1-5.7-3.1-7.8c-34.8-36.4-82.9-65.8-139.5-82.2
				C173.3,24.6,36.7,78,6.1,183.9c-30.6,105.8,56.5,223.8,194.6,263.7c138,39.9,274.6-13.6,305.2-119.5
				C511.1,309.9,513,291.1,511.5,272.5z M263.4,378.4c0-7.6,3.1-15,8.5-20.4c10.7-10.8,30.1-10.8,40.8,0c5.4,5.4,8.4,12.8,8.4,20.4
				c0,7.6-3.1,15-8.4,20.4c-5.4,5.4-12.9,8.4-20.4,8.4c-7.6,0-15-3.1-20.4-8.4C266.5,393.4,263.4,386,263.4,378.4z M247.7,105.5
				c7.4,7.4,11.7,17.7,11.7,28.1c0,10.4-4.3,20.6-11.7,28c-7.4,7.4-17.6,11.7-28,11.7c-10.5,0-20.7-4.3-28.1-11.7
				c-7.4-7.4-11.6-17.6-11.6-28c0-10.4,4.2-20.7,11.6-28.1C206.5,90.8,232.9,90.8,247.7,105.5z M154.2,338.4
				c7.2-14.3,24.6-20,38.7-12.9c14.3,7.2,19.9,24.5,12.8,38.7c-5,10.1-15.2,15.9-25.7,15.9c-4.4,0-8.8-1-13-3.1
				C152.8,369.9,147,352.6,154.2,338.4z M81,194.3c-14.5-16.4-12.8-41.5,3.7-55.9c16.5-14.5,41.6-12.8,56,3.7
				c14.4,16.5,12.7,41.6-3.7,56c-7.6,6.6-16.9,9.7-26.2,9.7C99.8,207.9,88.8,203.4,81,194.3z M76.6,238.9
				c19.3-10.3,43.3-3.1,53.6,16.3c10.4,19.3,3.1,43.3-16.2,53.7c-6,3.2-12.4,4.6-18.7,4.6c-14.2,0-27.9-7.6-35-21
				C50,273.4,57.2,249.3,76.6,238.9z"/>
		</g>
	</g>
</g>
<g id="green">
	<g>
		<g>
			<path class="st2" d="M511.5,272.5c-0.7-8.7-10.3-13.6-18.1-9.5c-13.9,7.4-31.7,10.4-50.4,7.2c-37.3-6.3-63.7-34.5-58.9-63
				c4.1-24.1,28.9-40.8,58.9-41.7c6-0.2,10.8-5.1,10.8-11.1c0-2.9-1.1-5.7-3.1-7.8c-34.8-36.4-82.9-65.8-139.5-82.2
				C173.3,24.6,36.7,78,6.1,183.9c-30.6,105.8,56.5,223.8,194.6,263.7c138,39.9,274.6-13.6,305.2-119.5
				C511.1,309.9,513,291.1,511.5,272.5z M263.4,378.4c0-7.6,3.1-15,8.5-20.4c10.7-10.8,30.1-10.8,40.8,0c5.4,5.4,8.4,12.8,8.4,20.4
				c0,7.6-3.1,15-8.4,20.4c-5.4,5.4-12.9,8.4-20.4,8.4c-7.6,0-15-3.1-20.4-8.4C266.5,393.4,263.4,386,263.4,378.4z M247.7,105.5
				c7.4,7.4,11.7,17.7,11.7,28.1c0,10.4-4.3,20.6-11.7,28c-7.4,7.4-17.6,11.7-28,11.7c-10.5,0-20.7-4.3-28.1-11.7
				c-7.4-7.4-11.6-17.6-11.6-28c0-10.4,4.2-20.7,11.6-28.1C206.5,90.8,232.9,90.8,247.7,105.5z M154.2,338.4
				c7.2-14.3,24.6-20,38.7-12.9c14.3,7.2,19.9,24.5,12.8,38.7c-5,10.1-15.2,15.9-25.7,15.9c-4.4,0-8.8-1-13-3.1
				C152.8,369.9,147,352.6,154.2,338.4z M81,194.3c-14.5-16.4-12.8-41.5,3.7-55.9c16.5-14.5,41.6-12.8,56,3.7
				c14.4,16.5,12.7,41.6-3.7,56c-7.6,6.6-16.9,9.7-26.2,9.7C99.8,207.9,88.8,203.4,81,194.3z M76.6,238.9
				c19.3-10.3,43.3-3.1,53.6,16.3c10.4,19.3,3.1,43.3-16.2,53.7c-6,3.2-12.4,4.6-18.7,4.6c-14.2,0-27.9-7.6-35-21
				C50,273.4,57.2,249.3,76.6,238.9z"/>
		</g>
	</g>
</g>
<g id="kiiro">
	<g>
		<g>
			<path class="st3" d="M511.5,272.5c-0.7-8.7-10.3-13.6-18.1-9.5c-13.9,7.4-31.7,10.4-50.4,7.2c-37.3-6.3-63.7-34.5-58.9-63
				c4.1-24.1,28.9-40.8,58.9-41.7c6-0.2,10.8-5.1,10.8-11.1c0-2.9-1.1-5.7-3.1-7.8c-34.8-36.4-82.9-65.8-139.5-82.2
				C173.3,24.6,36.7,78,6.1,183.9c-30.6,105.8,56.5,223.8,194.6,263.7c138,39.9,274.6-13.6,305.2-119.5
				C511.1,309.9,513,291.1,511.5,272.5z M263.4,378.4c0-7.6,3.1-15,8.5-20.4c10.7-10.8,30.1-10.8,40.8,0c5.4,5.4,8.4,12.8,8.4,20.4
				c0,7.6-3.1,15-8.4,20.4c-5.4,5.4-12.9,8.4-20.4,8.4c-7.6,0-15-3.1-20.4-8.4C266.5,393.4,263.4,386,263.4,378.4z M247.7,105.5
				c7.4,7.4,11.7,17.7,11.7,28.1c0,10.4-4.3,20.6-11.7,28c-7.4,7.4-17.6,11.7-28,11.7c-10.5,0-20.7-4.3-28.1-11.7
				c-7.4-7.4-11.6-17.6-11.6-28c0-10.4,4.2-20.7,11.6-28.1C206.5,90.8,232.9,90.8,247.7,105.5z M154.2,338.4
				c7.2-14.3,24.6-20,38.7-12.9c14.3,7.2,19.9,24.5,12.8,38.7c-5,10.1-15.2,15.9-25.7,15.9c-4.4,0-8.8-1-13-3.1
				C152.8,369.9,147,352.6,154.2,338.4z M81,194.3c-14.5-16.4-12.8-41.5,3.7-55.9c16.5-14.5,41.6-12.8,56,3.7
				c14.4,16.5,12.7,41.6-3.7,56c-7.6,6.6-16.9,9.7-26.2,9.7C99.8,207.9,88.8,203.4,81,194.3z M76.6,238.9
				c19.3-10.3,43.3-3.1,53.6,16.3c10.4,19.3,3.1,43.3-16.2,53.7c-6,3.2-12.4,4.6-18.7,4.6c-14.2,0-27.9-7.6-35-21
				C50,273.4,57.2,249.3,76.6,238.9z"/>
		</g>
	</g>
</g>
<g id="ao">
	<g>
		<g>
			<path class="st4" d="M511.5,272.5c-0.7-8.7-10.3-13.6-18.1-9.5c-13.9,7.4-31.7,10.4-50.4,7.2c-37.3-6.3-63.7-34.5-58.9-63
				c4.1-24.1,28.9-40.8,58.9-41.7c6-0.2,10.8-5.1,10.8-11.1c0-2.9-1.1-5.7-3.1-7.8c-34.8-36.4-82.9-65.8-139.5-82.2
				C173.3,24.6,36.7,78,6.1,183.9c-30.6,105.8,56.5,223.8,194.6,263.7c138,39.9,274.6-13.6,305.2-119.5
				C511.1,309.9,513,291.1,511.5,272.5z M263.4,378.4c0-7.6,3.1-15,8.5-20.4c10.7-10.8,30.1-10.8,40.8,0c5.4,5.4,8.4,12.8,8.4,20.4
				c0,7.6-3.1,15-8.4,20.4c-5.4,5.4-12.9,8.4-20.4,8.4c-7.6,0-15-3.1-20.4-8.4C266.5,393.4,263.4,386,263.4,378.4z M247.7,105.5
				c7.4,7.4,11.7,17.7,11.7,28.1c0,10.4-4.3,20.6-11.7,28c-7.4,7.4-17.6,11.7-28,11.7c-10.5,0-20.7-4.3-28.1-11.7
				c-7.4-7.4-11.6-17.6-11.6-28c0-10.4,4.2-20.7,11.6-28.1C206.5,90.8,232.9,90.8,247.7,105.5z M154.2,338.4
				c7.2-14.3,24.6-20,38.7-12.9c14.3,7.2,19.9,24.5,12.8,38.7c-5,10.1-15.2,15.9-25.7,15.9c-4.4,0-8.8-1-13-3.1
				C152.8,369.9,147,352.6,154.2,338.4z M81,194.3c-14.5-16.4-12.8-41.5,3.7-55.9c16.5-14.5,41.6-12.8,56,3.7
				c14.4,16.5,12.7,41.6-3.7,56c-7.6,6.6-16.9,9.7-26.2,9.7C99.8,207.9,88.8,203.4,81,194.3z M76.6,238.9
				c19.3-10.3,43.3-3.1,53.6,16.3c10.4,19.3,3.1,43.3-16.2,53.7c-6,3.2-12.4,4.6-18.7,4.6c-14.2,0-27.9-7.6-35-21
				C50,273.4,57.2,249.3,76.6,238.9z"/>
		</g>
	</g>
</g>
<g id="mizu">
	<g>
		<g>
			<path class="st5" d="M511.5,272.5c-0.7-8.7-10.3-13.6-18.1-9.5c-13.9,7.4-31.7,10.4-50.4,7.2c-37.3-6.3-63.7-34.5-58.9-63
				c4.1-24.1,28.9-40.8,58.9-41.7c6-0.2,10.8-5.1,10.8-11.1c0-2.9-1.1-5.7-3.1-7.8c-34.8-36.4-82.9-65.8-139.5-82.2
				C173.3,24.6,36.7,78,6.1,183.9c-30.6,105.8,56.5,223.8,194.6,263.7c138,39.9,274.6-13.6,305.2-119.5
				C511.1,309.9,513,291.1,511.5,272.5z M263.4,378.4c0-7.6,3.1-15,8.5-20.4c10.7-10.8,30.1-10.8,40.8,0c5.4,5.4,8.4,12.8,8.4,20.4
				c0,7.6-3.1,15-8.4,20.4c-5.4,5.4-12.9,8.4-20.4,8.4c-7.6,0-15-3.1-20.4-8.4C266.5,393.4,263.4,386,263.4,378.4z M247.7,105.5
				c7.4,7.4,11.7,17.7,11.7,28.1c0,10.4-4.3,20.6-11.7,28c-7.4,7.4-17.6,11.7-28,11.7c-10.5,0-20.7-4.3-28.1-11.7
				c-7.4-7.4-11.6-17.6-11.6-28c0-10.4,4.2-20.7,11.6-28.1C206.5,90.8,232.9,90.8,247.7,105.5z M154.2,338.4
				c7.2-14.3,24.6-20,38.7-12.9c14.3,7.2,19.9,24.5,12.8,38.7c-5,10.1-15.2,15.9-25.7,15.9c-4.4,0-8.8-1-13-3.1
				C152.8,369.9,147,352.6,154.2,338.4z M81,194.3c-14.5-16.4-12.8-41.5,3.7-55.9c16.5-14.5,41.6-12.8,56,3.7
				c14.4,16.5,12.7,41.6-3.7,56c-7.6,6.6-16.9,9.7-26.2,9.7C99.8,207.9,88.8,203.4,81,194.3z M76.6,238.9
				c19.3-10.3,43.3-3.1,53.6,16.3c10.4,19.3,3.1,43.3-16.2,53.7c-6,3.2-12.4,4.6-18.7,4.6c-14.2,0-27.9-7.6-35-21
				C50,273.4,57.2,249.3,76.6,238.9z"/>
		</g>
	</g>
</g>
</svg>
