<!--?xml version="1.0" encoding="utf-8"?-->
<!-- Generator: Adobe Illustrator 18.1.1, SVG Export Plug-In . SVG Version: 6.00 Build 0)  -->

<svg version="1.1" id="_x31_0" xmlns="http://www.w3.org/2000/svg" xmlns:xlink="http://www.w3.org/1999/xlink" x="0px" y="0px" viewBox="0 0 512 512" style="width: 256px; height: 256px; opacity: 1;" xml:space="preserve">
<style type="text/css">
	.st0{fill:#374149;}
</style>
<g>
	<path class="st0" d="M511.529,272.483c-0.676-8.719-10.34-13.618-18.059-9.5c-13.859,7.382-31.742,10.398-50.437,7.23
		c-37.285-6.286-63.652-34.504-58.914-63.035c4.054-24.133,28.866-40.766,58.89-41.656c6.028-0.18,10.84-5.054,10.84-11.086
		c0-2.898-1.082-5.711-3.086-7.805c-34.801-36.394-82.859-65.805-139.464-82.206C173.284,24.562,36.706,78.019,6.117,183.905
		c-30.59,105.774,56.546,223.812,194.566,263.671C338.697,487.435,475.27,433.982,505.861,328.1
		C511.114,309.87,512.969,291.123,511.529,272.483z M263.405,378.404c0-7.578,3.133-14.992,8.488-20.351
		c10.711-10.789,30.074-10.789,40.789,0c5.351,5.359,8.402,12.774,8.402,20.351c0,7.578-3.051,15-8.402,20.438
		c-5.359,5.352-12.855,8.406-20.438,8.406c-7.582,0-15-3.054-20.351-8.406C266.537,393.404,263.405,385.982,263.405,378.404z
		 M247.717,105.515c7.363,7.367,11.672,17.675,11.672,28.101c0,10.422-4.309,20.618-11.672,27.985
		c-7.363,7.363-17.558,11.664-27.98,11.664c-10.539,0-20.734-4.301-28.102-11.664c-7.367-7.367-11.554-17.562-11.554-27.985
		c0-10.426,4.187-20.734,11.554-28.101C206.479,90.788,232.873,90.788,247.717,105.515z M154.174,338.432
		c7.172-14.254,24.554-20.02,38.73-12.852c14.254,7.168,19.942,24.473,12.77,38.722c-5.023,10.055-15.16,15.902-25.707,15.902
		c-4.367,0-8.816-0.98-13.015-3.129C152.776,369.904,147.006,352.607,154.174,338.432z M80.964,194.303
		c-14.504-16.43-12.805-41.468,3.734-55.858c16.546-14.5,41.586-12.797,55.976,3.742c14.387,16.539,12.684,41.578-3.742,55.969
		c-7.59,6.57-16.883,9.742-26.172,9.742C99.769,207.898,88.784,203.366,80.964,194.303z M76.624,238.913
		c19.254-10.309,43.278-3.054,53.59,16.316c10.422,19.258,3.058,43.278-16.203,53.699c-6.004,3.18-12.351,4.649-18.695,4.649
		c-14.164,0-27.87-7.59-35.007-20.961C49.995,273.35,57.249,249.338,76.624,238.913z" style="fill: rgb(75, 75, 75);"></path>
</g>
</svg>
